<?xml version="1.0" encoding="utf-8"?>
<!-- Generator: Adobe Illustrator 18.1.1, SVG Export Plug-In . SVG Version: 6.00 Build 0)  -->
<!DOCTYPE svg PUBLIC "-//W3C//DTD SVG 1.1//EN" "http://www.w3.org/Graphics/SVG/1.1/DTD/svg11.dtd">
<svg version="1.1" id="Ebene_1" xmlns="http://www.w3.org/2000/svg" xmlns:xlink="http://www.w3.org/1999/xlink" x="0px" y="0px"
	 viewBox="0 0 126.1 131" enable-background="new 0 0 126.1 131" xml:space="preserve">
<g>
	<rect x="0" y="0" fill="none" width="126.1" height="131"/>
	<polygon fill="#A2D9F7" points="12.6,0 0,21.8 25.2,21.8 	"/>
	<polygon fill="#A2D9F7" points="50.4,21.8 37.8,0 25.2,21.8 	"/>
	<polygon fill="#A2D9F7" points="75.6,21.8 63,0 50.4,21.8 	"/>
	<polygon fill="#A2D9F7" points="100.9,21.8 88.2,0 75.6,21.8 	"/>
	<polygon fill="#A2D9F7" points="126.1,21.8 113.5,0 100.9,21.8 	"/>
	<polygon fill="#85D1F5" points="126.1,0 113.5,0 126.1,21.8 	"/>
	<polygon fill="#85D1F5" points="113.5,0 88.2,0 100.9,21.8 	"/>
	<polygon fill="#85D1F5" points="88.2,0 63,0 75.6,21.8 	"/>
	<polygon fill="#85D1F5" points="63,0 37.8,0 50.4,21.8 	"/>
	<polygon fill="#85D1F5" points="37.8,0 12.6,0 25.2,21.8 	"/>
	<polygon fill="#85D1F5" points="0,0 0,21.8 12.6,0 	"/>
	<polygon fill="#85D1F5" points="113.5,43.7 126.1,21.8 100.9,21.8 	"/>
	<polygon fill="#85D1F5" points="100.9,21.8 75.6,21.8 88.2,43.7 	"/>
	<polygon fill="#85D1F5" points="75.6,21.8 50.4,21.8 63,43.7 	"/>
	<polygon fill="#85D1F5" points="50.4,21.8 25.2,21.8 37.8,43.7 	"/>
	<polygon fill="#85D1F5" points="25.2,21.8 0,21.8 12.6,43.7 	"/>
	<polygon fill="#A2D9F7" points="0,21.8 0,43.7 12.6,43.7 	"/>
	<polygon fill="#A2D9F7" points="25.2,21.8 12.6,43.7 37.8,43.7 	"/>
	<polygon fill="#A2D9F7" points="63,43.7 50.4,21.8 37.8,43.7 	"/>
	<polygon fill="#A2D9F7" points="88.2,43.7 75.6,21.8 63,43.7 	"/>
	<polygon fill="#A2D9F7" points="113.5,43.7 100.9,21.8 88.2,43.7 	"/>
	<polygon fill="#A2D9F7" points="126.1,43.7 126.1,21.8 113.5,43.7 	"/>
	<polygon fill="#A2D9F7" points="12.6,43.7 0,65.5 25.2,65.5 	"/>
	<polygon fill="#A2D9F7" points="37.8,43.7 25.2,65.5 50.4,65.5 	"/>
	<polygon fill="#A2D9F7" points="63,43.7 50.4,65.5 75.6,65.5 	"/>
	<polygon fill="#A2D9F7" points="75.6,65.5 100.9,65.5 88.2,43.7 	"/>
	<polygon fill="#A2D9F7" points="100.9,65.5 126.1,65.5 113.5,43.7 	"/>
	<polygon fill="#85D1F5" points="126.1,65.5 126.1,43.7 113.5,43.7 	"/>
	<polygon fill="#85D1F5" points="100.9,65.5 113.5,43.7 88.2,43.7 	"/>
	<polygon fill="#85D1F5" points="88.2,43.7 63,43.7 75.6,65.5 	"/>
	<polygon fill="#85D1F5" points="37.8,43.7 50.4,65.5 63,43.7 	"/>
	<polygon fill="#85D1F5" points="12.6,43.7 25.2,65.5 37.8,43.7 	"/>
	<polygon fill="#85D1F5" points="0,43.7 0,65.5 12.6,43.7 	"/>
	<polygon fill="#85D1F5" points="113.5,87.3 126.1,65.5 100.9,65.5 	"/>
	<polygon fill="#85D1F5" points="88.2,87.3 100.9,65.5 75.6,65.5 	"/>
	<polygon fill="#85D1F5" points="50.4,65.5 63,87.3 75.6,65.5 	"/>
	<polygon fill="#85D1F5" points="50.4,65.5 25.2,65.5 37.8,87.3 	"/>
	<polygon fill="#85D1F5" points="25.2,65.5 0,65.5 12.6,87.3 	"/>
	<polygon fill="#A2D9F7" points="0,65.5 0,87.3 12.6,87.3 	"/>
	<polygon fill="#A2D9F7" points="25.2,65.5 12.6,87.3 37.8,87.3 	"/>
	<polygon fill="#A2D9F7" points="37.8,87.3 63,87.3 50.4,65.5 	"/>
	<polygon fill="#A2D9F7" points="63,87.3 88.2,87.3 75.6,65.5 	"/>
	<polygon fill="#A2D9F7" points="113.5,87.3 100.9,65.5 88.2,87.3 	"/>
	<polygon fill="#A2D9F7" points="126.1,87.3 126.1,65.5 113.5,87.3 	"/>
	<polygon fill="#A2D9F7" points="12.6,87.3 0,109.2 25.2,109.2 	"/>
	<polygon fill="#A2D9F7" points="25.2,109.2 50.4,109.2 37.8,87.3 	"/>
	<polygon fill="#A2D9F7" points="50.4,109.2 75.6,109.2 63,87.3 	"/>
	<polygon fill="#A2D9F7" points="75.6,109.2 100.9,109.2 88.2,87.3 	"/>
	<polygon fill="#A2D9F7" points="100.9,109.2 126.1,109.2 113.5,87.3 	"/>
	<polygon fill="#85D1F5" points="126.1,109.2 126.1,87.3 113.5,87.3 	"/>
	<polygon fill="#85D1F5" points="88.2,87.3 100.9,109.2 113.5,87.3 	"/>
	<polygon fill="#85D1F5" points="63,87.3 75.6,109.2 88.2,87.3 	"/>
	<polygon fill="#85D1F5" points="37.8,87.3 50.4,109.2 63,87.3 	"/>
	<polygon fill="#85D1F5" points="12.6,87.3 25.2,109.2 37.8,87.3 	"/>
	<polygon fill="#85D1F5" points="0,87.3 0,109.2 12.6,87.3 	"/>
	<polygon fill="#85D1F5" points="100.9,109.2 113.5,131 126.1,109.2 	"/>
	<polygon fill="#85D1F5" points="75.6,109.2 88.2,131 100.9,109.2 	"/>
	<polygon fill="#85D1F5" points="50.4,109.2 63,131 75.6,109.2 	"/>
	<polygon fill="#85D1F5" points="25.2,109.2 37.8,131 50.4,109.2 	"/>
	<polygon fill="#85D1F5" points="0,109.2 12.6,131 25.2,109.2 	"/>
	<polygon fill="#A2D9F7" points="0,131 12.6,131 0,109.2 	"/>
	<polygon fill="#A2D9F7" points="12.6,131 37.8,131 25.2,109.2 	"/>
	<polygon fill="#A2D9F7" points="37.8,131 63,131 50.4,109.2 	"/>
	<polygon fill="#A2D9F7" points="63,131 88.2,131 75.6,109.2 	"/>
	<polygon fill="#A2D9F7" points="88.2,131 113.5,131 100.9,109.2 	"/>
	<polygon fill="#A2D9F7" points="113.5,131 126.1,131 126.1,109.2 	"/>
</g>
</svg>
